<svg width="72" height="72" viewBox="0 0 72 72" fill="none" xmlns="http://www.w3.org/2000/svg">
<g clip-path="url(#clip0_238_40)">
<path fill-rule="evenodd" clip-rule="evenodd" d="M10.0723 11.386C5.86559 14.5577 9.02069 36.7599 9.02069 36.7599C9.02069 36.7599 6.27777 40.3753 4.81363 44.1606C3.69583 47.0506 3.76219 50.5041 4.81383 55.7904C5.86548 61.0766 14.2791 73.7636 31.1063 83.2788C47.9335 92.7941 51.0886 97.0231 59.5022 114.996C67.9158 132.97 68.9675 152 68.9675 152H151V74.8209C151 74.8209 128.914 57.9049 121.552 52.6187C114.191 47.3324 98.4151 36.7599 85.7947 35.7027C73.1743 34.6454 64.7607 37.8172 64.7607 37.8172C64.7607 37.8172 64.7607 6.09972 57.3988 5.04248C50.0369 3.98523 42.675 23.0157 42.675 23.0157C42.675 23.0157 40.5716 24.0729 33.2097 25.1302C25.8478 26.1875 24.7961 25.1302 24.7961 25.1302C24.7961 25.1302 14.2791 8.21424 10.0723 11.386ZM30.0549 38.8744C31.1065 37.2886 32.1581 32.5309 37.4166 33.5882C42.6751 34.6454 44.2445 38.3539 41.6232 40.9891C39.0019 43.6241 38.4682 44.1607 35.313 44.1607C32.1577 44.1607 29.0032 40.4603 30.0549 38.8744ZM9.63536 39.403C12.7905 35.1741 14.8937 37.2885 15.9456 37.2885C16.9974 37.2885 19.1008 40.4603 16.9972 43.632C14.8936 46.8038 10.6872 47.861 9.63535 46.8038C8.58348 45.7465 6.48026 43.632 9.63536 39.403ZM18.486 29.3592L11.124 33.5882C11.124 33.5882 9.02063 17.7295 11.124 17.7295C13.2274 17.7295 18.486 29.3592 18.486 29.3592ZM58.4506 37.8172C63.7094 42.0463 61.6056 13.5005 58.4506 13.5004C55.2956 13.5004 51.0886 30.4164 51.0886 30.4164C51.0886 30.4164 53.1918 33.588 58.4506 37.8172Z" fill="black"/>
<path d="M58.4506 13.5004C61.6056 13.5005 63.7094 42.0463 58.4506 37.8172C53.1918 33.588 51.0886 30.4164 51.0886 30.4164C51.0886 30.4164 55.2956 13.5004 58.4506 13.5004Z" fill="black" fill-opacity="0.25"/>
<path d="M11.124 33.5882L18.486 29.3592C18.486 29.3592 13.2274 17.7295 11.124 17.7295C9.02063 17.7295 11.124 33.5882 11.124 33.5882Z" fill="black" fill-opacity="0.25"/>
<path fill-rule="evenodd" clip-rule="evenodd" d="M10.0723 11.386C5.86559 14.5577 9.02069 36.7599 9.02069 36.7599C9.02069 36.7599 6.27777 40.3753 4.81363 44.1606C3.69583 47.0506 3.76219 50.5041 4.81383 55.7904C5.86548 61.0766 14.2791 73.7636 31.1063 83.2788C47.9335 92.7941 51.0886 97.0231 59.5022 114.996C67.9158 132.97 68.9675 152 68.9675 152H151V74.8209C151 74.8209 128.914 57.9049 121.552 52.6187C114.191 47.3324 98.4151 36.7599 85.7947 35.7027C73.1743 34.6454 64.7607 37.8172 64.7607 37.8172C64.7607 37.8172 64.7607 6.09972 57.3988 5.04248C50.0369 3.98523 42.675 23.0157 42.675 23.0157C42.675 23.0157 40.5716 24.0729 33.2097 25.1302C25.8478 26.1875 24.7961 25.1302 24.7961 25.1302C24.7961 25.1302 14.2791 8.21424 10.0723 11.386ZM30.0549 38.8744C31.1065 37.2886 32.1581 32.5309 37.4166 33.5882C42.6751 34.6454 44.2445 38.3539 41.6232 40.9891C39.0019 43.6241 38.4682 44.1607 35.313 44.1607C32.1577 44.1607 29.0032 40.4603 30.0549 38.8744ZM9.63536 39.403C12.7905 35.1741 14.8937 37.2885 15.9456 37.2885C16.9974 37.2885 19.1008 40.4603 16.9972 43.632C14.8936 46.8038 10.6872 47.861 9.63535 46.8038C8.58348 45.7465 6.48026 43.632 9.63536 39.403ZM18.486 29.3592L11.124 33.5882C11.124 33.5882 9.02063 17.7295 11.124 17.7295C13.2274 17.7295 18.486 29.3592 18.486 29.3592ZM58.4506 37.8172C63.7094 42.0463 61.6056 13.5005 58.4506 13.5004C55.2956 13.5004 51.0886 30.4164 51.0886 30.4164C51.0886 30.4164 53.1918 33.588 58.4506 37.8172Z" stroke="black" stroke-width="0.5"/>
<path d="M58.4506 13.5004C61.6056 13.5005 63.7094 42.0463 58.4506 37.8172C53.1918 33.588 51.0886 30.4164 51.0886 30.4164C51.0886 30.4164 55.2956 13.5004 58.4506 13.5004Z" stroke="black" stroke-width="0.5"/>
<path d="M11.124 33.5882L18.486 29.3592C18.486 29.3592 13.2274 17.7295 11.124 17.7295C9.02063 17.7295 11.124 33.5882 11.124 33.5882Z" stroke="black" stroke-width="0.5"/>
</g>
<defs>
<clipPath id="clip0_238_40">
<rect width="72" height="72" fill="white"/>
</clipPath>
</defs>
</svg>
